<svg width="62" height="40" viewBox="0 0 62 40" fill="none" xmlns="http://www.w3.org/2000/svg">
<path d="M23.6302 12.5404C23.7507 12.5404 23.8109 12.6271 23.8109 12.8005C23.8109 12.9691 23.7796 13.1088 23.7169 13.2196C23.6543 13.3304 23.5821 13.4316 23.5002 13.5231C23.4183 13.6146 23.3147 13.7013 23.1895 13.7832C22.8956 13.9759 22.5849 14.0723 22.2574 14.0723C21.9346 14.0723 21.6769 14.0337 21.4842 13.9566C21.2964 13.8748 21.1326 13.7543 20.9929 13.5954C20.6942 13.263 20.5449 12.803 20.5449 12.2153C20.5449 11.589 20.6653 10.8255 20.9062 9.92474C21.147 9.01912 21.3782 8.24598 21.5998 7.60531C21.8262 6.95982 22.0575 6.34564 22.2935 5.76277L22.9438 4.1081C22.2309 4.74877 21.3277 6.09515 20.2342 8.14723L18.4856 11.4566C17.5511 13.2004 16.8839 14.0723 16.4841 14.0723C16.0939 14.0723 15.8265 13.9037 15.682 13.5665C15.552 13.2437 15.4869 12.697 15.4869 11.9262C15.4869 11.1507 15.5472 10.4089 15.6676 9.70074C15.7928 8.98781 15.9494 8.29174 16.1372 7.61253C16.4648 6.41308 16.8887 5.22325 17.409 4.04307C16.9032 4.32727 16.342 4.96072 15.7254 5.94341C15.2533 6.7286 14.9209 7.30183 14.7282 7.66311L12.864 11.0953C12.0885 12.5067 11.4647 13.3786 10.9926 13.711C10.6506 13.9518 10.2821 14.0723 9.88707 14.0723C9.54987 14.0723 9.30661 13.9663 9.15728 13.7543C9.09947 13.6676 9.07057 13.5881 9.07057 13.5159C9.07057 13.4436 9.09225 13.4003 9.1356 13.3858C9.43426 13.3039 9.64622 13.2196 9.77146 13.1329C9.89189 13.0414 10.0123 12.9499 10.1327 12.8583C10.2532 12.762 10.429 12.5621 10.6602 12.2586C10.8914 11.9503 11.1419 11.5818 11.4117 11.1531C11.6814 10.7196 11.9632 10.2354 12.2571 9.70074L13.1747 8.00994C14.0225 6.37213 14.9089 5.05947 15.8338 4.07197C16.1613 3.72032 16.4841 3.44815 16.802 3.25547C17.1199 3.02907 17.4884 2.87733 17.9075 2.80026C18.0231 2.77617 18.1291 2.76413 18.2255 2.76413C18.3266 2.76413 18.4374 2.77858 18.5578 2.80748C18.6831 2.83638 18.7915 2.88215 18.883 2.94477C19.0949 3.08928 19.1576 3.28197 19.0709 3.52282C19.0323 3.66733 18.9577 3.8841 18.8469 4.17313L18.4567 5.20639C17.5462 7.72092 17.0477 10.009 16.961 12.0708C17.2163 11.6324 17.474 11.1531 17.7341 10.6329L18.5506 9.02153L19.4105 7.38131C20.7352 4.92459 21.9659 3.518 23.1028 3.16154C23.3388 3.08446 23.5363 3.04593 23.6953 3.04593C23.8542 3.04593 23.9795 3.0676 24.071 3.11096C24.1625 3.14949 24.2444 3.20007 24.3167 3.2627C24.4853 3.41684 24.5431 3.57581 24.4901 3.73959C24.4371 3.89855 24.3673 4.10328 24.2805 4.35377L23.2328 7.41021L22.8571 8.60967C22.4428 9.99699 22.1972 11.0616 22.1201 11.8034C22.0912 12.1165 22.1249 12.3622 22.2212 12.5404C22.3224 12.7138 22.4597 12.8005 22.6331 12.8005C22.8065 12.8005 22.9414 12.7885 23.0377 12.7644C23.1389 12.7355 23.2256 12.7042 23.2979 12.6705L23.4857 12.5838C23.5387 12.5549 23.5869 12.5404 23.6302 12.5404ZM26.2965 12.0997C26.2965 12.5573 26.4699 12.7861 26.8167 12.7861C27.4526 12.7861 28.2787 11.9889 29.2951 10.3944C29.5986 9.92233 29.9021 9.42376 30.2056 8.8987L31.0871 7.28015C32.3492 4.83789 33.0766 3.44575 33.2692 3.10373C33.3656 2.93032 33.5029 2.84361 33.6811 2.84361C33.8593 2.84361 34.0087 2.8701 34.1291 2.92309C34.2495 2.97126 34.3531 3.03629 34.4398 3.11818C34.6421 3.31087 34.6927 3.50355 34.5915 3.69624C34.2543 4.32246 33.9412 5.02334 33.6522 5.7989L31.8458 10.8352C31.6531 11.3458 31.4532 11.8395 31.2461 12.3164C31.0389 12.7885 30.8053 13.2582 30.5452 13.7254C30.2899 14.1927 30.0153 14.6383 29.7215 15.0622C29.4276 15.4861 29.1193 15.8787 28.7966 16.2399C28.4738 16.606 28.1439 16.924 27.8067 17.1937C27.0889 17.7622 26.4025 18.0464 25.7474 18.0464C25.6221 18.0464 25.4993 18.0175 25.3788 17.9597C25.2584 17.9018 25.1862 17.82 25.1621 17.714C25.138 17.608 25.1549 17.5357 25.2127 17.4972C25.2705 17.4587 25.3475 17.4201 25.4439 17.3816C26.7734 16.8854 28.0282 15.5607 29.2084 13.4075C29.5553 12.7716 29.8756 12.1093 30.1694 11.4204C30.5066 10.5293 30.7234 9.94642 30.8198 9.67184L30.09 10.7846C28.5726 12.9764 27.284 14.0723 26.2242 14.0723C25.5065 14.0723 25.0272 13.7591 24.7863 13.1329C24.7141 12.9354 24.678 12.7668 24.678 12.6271V12.3526C24.678 11.7697 25.0176 10.6618 25.6968 9.02876L27.1997 5.53155C27.4887 4.83307 27.6332 4.40435 27.6332 4.24538C27.6332 4.0816 27.6043 3.95877 27.5465 3.87688C27.4887 3.79499 27.4237 3.72995 27.3514 3.68178L27.1564 3.53727C27.0985 3.49873 27.0696 3.44093 27.0696 3.36386C27.0696 3.28678 27.1082 3.20971 27.1853 3.13264C27.2623 3.05556 27.3635 2.98812 27.4887 2.93032C27.7392 2.81952 27.9849 2.76413 28.2257 2.76413C28.4714 2.76413 28.6593 2.79062 28.7893 2.84361C28.9242 2.89178 29.035 2.9544 29.1217 3.03148C29.2903 3.19044 29.3746 3.38312 29.3746 3.60953C29.3746 3.83111 29.3313 4.09365 29.2446 4.39712C29.1627 4.7006 29.0519 5.03298 28.9122 5.39426C28.7773 5.75073 28.6207 6.12887 28.4425 6.52869L27.3442 8.94205C26.6457 10.4787 26.2965 11.4951 26.2965 11.9913V12.0997Z" fill="url(#paint0_linear_63_535)"/>
<g filter="url(#filter0_i_63_535)">
<path d="M3.25255 39.4333C2.76231 39.4333 2.39463 39.3578 2.14951 39.207C1.90439 39.0562 1.74412 38.8487 1.6687 38.5848C1.61214 38.3208 1.58385 38.0285 1.58385 37.708V21.3887C1.58385 21.087 1.61214 20.8136 1.6687 20.5684C1.74412 20.3045 1.90439 20.0971 2.14951 19.9462C2.39463 19.7765 2.78117 19.6917 3.30912 19.6917C3.70508 19.6917 3.99734 19.72 4.18589 19.7765C4.3933 19.8142 4.55357 19.8802 4.66671 19.9745C4.77984 20.0499 4.89297 20.1536 5.0061 20.2856L11.9072 29.9301H11.2567L18.186 20.2573C18.318 20.1065 18.45 19.9934 18.582 19.9179C18.714 19.8425 18.8837 19.786 19.0911 19.7482C19.2985 19.7105 19.5719 19.6917 19.9113 19.6917C20.4204 19.6917 20.7975 19.7765 21.0426 19.9462C21.2877 20.0971 21.4386 20.3045 21.4951 20.5684C21.5706 20.8324 21.6083 21.1247 21.6083 21.4452V37.7646C21.6083 38.0474 21.5706 38.3208 21.4951 38.5848C21.4386 38.8487 21.2877 39.0562 21.0426 39.207C20.7975 39.3578 20.4109 39.4333 19.883 39.4333C19.3739 39.4333 18.9968 39.3484 18.7517 39.1787C18.5066 39.0279 18.3463 38.8205 18.2709 38.5565C18.2143 38.2925 18.186 38.0097 18.186 37.708V25.5746L13.0385 33.013C12.9819 33.0884 12.8971 33.1921 12.7839 33.3241C12.6708 33.4372 12.52 33.541 12.3314 33.6352C12.1429 33.7295 11.8883 33.7766 11.5678 33.7766C11.2661 33.7766 11.021 33.7295 10.8324 33.6352C10.6439 33.541 10.493 33.4372 10.3799 33.3241C10.2856 33.211 10.1913 33.0979 10.0971 32.9847L4.97782 25.5746V37.7646C4.97782 38.0474 4.94011 38.3208 4.86469 38.5848C4.80812 38.8487 4.65728 39.0562 4.41216 39.207C4.16704 39.3578 3.7805 39.4333 3.25255 39.4333ZM26.4818 39.4615C25.9727 39.4615 25.5956 39.3767 25.3505 39.207C25.1053 39.0562 24.9545 38.8582 24.8979 38.613C24.8414 38.3491 24.8131 38.0568 24.8131 37.7363V27.215C24.8131 26.9133 24.8414 26.6399 24.8979 26.3948C24.9734 26.1308 25.1242 25.9234 25.3505 25.7725C25.5956 25.6217 25.9821 25.5463 26.5101 25.5463C27.038 25.5463 27.4151 25.6217 27.6414 25.7725C27.8865 25.9234 28.0374 26.1308 28.0939 26.3948C28.1505 26.6587 28.1788 26.951 28.1788 27.2715V37.7646C28.1788 38.0851 28.1505 38.3774 28.0939 38.6413C28.0374 38.8865 27.8865 39.0844 27.6414 39.2353C27.4151 39.3861 27.0286 39.4615 26.4818 39.4615ZM26.4818 22.8028C25.935 22.8028 25.5296 22.7274 25.2656 22.5765C25.0205 22.4069 24.8602 22.1806 24.7848 21.8978C24.7282 21.6149 24.7 21.3038 24.7 20.9644C24.7 20.6062 24.7282 20.295 24.7848 20.0311C24.8602 19.7671 25.0299 19.5597 25.2939 19.4088C25.5579 19.2391 25.9633 19.1543 26.5101 19.1543C27.0757 19.1543 27.4811 19.2391 27.7262 19.4088C27.9714 19.5785 28.1316 19.8048 28.2071 20.0876C28.2825 20.3516 28.3202 20.6627 28.3202 21.021C28.3202 21.3415 28.2825 21.6432 28.2071 21.926C28.1316 22.2089 27.9714 22.4257 27.7262 22.5765C27.4811 22.7274 27.0663 22.8028 26.4818 22.8028ZM32.9416 39.4333C32.4325 39.4333 32.0554 39.3484 31.8103 39.1787C31.584 39.0279 31.4426 38.8299 31.386 38.5848C31.3295 38.3208 31.3012 38.0285 31.3012 37.708V27.1301C31.3012 26.8284 31.3295 26.555 31.386 26.3099C31.4426 26.0648 31.5934 25.8762 31.8386 25.7443C32.0837 25.5934 32.4608 25.518 32.9699 25.518C33.4224 25.518 33.7618 25.5746 33.9881 25.6877C34.2143 25.8008 34.3652 25.9422 34.4406 26.1119C34.516 26.2816 34.5537 26.4513 34.5537 26.621C34.5726 26.7907 34.5914 26.9227 34.6103 27.017L34.4972 27.922C34.6103 27.6204 34.7989 27.3281 35.0628 27.0453C35.3268 26.7624 35.6473 26.5079 36.0245 26.2816C36.4016 26.0365 36.807 25.848 37.2406 25.716C37.6932 25.5651 38.1551 25.4897 38.6265 25.4897C39.5127 25.4897 40.3046 25.65 41.0023 25.9705C41.6999 26.2911 42.2939 26.7436 42.7841 27.3281C43.2932 27.9126 43.6797 28.6103 43.9437 29.4211C44.2077 30.213 44.3397 31.1086 44.3397 32.1079V37.7363C44.3397 38.0568 44.302 38.3491 44.2265 38.613C44.17 38.8582 44.0286 39.0562 43.8023 39.207C43.576 39.3578 43.1895 39.4333 42.6427 39.4333C42.1147 39.4333 41.7282 39.3484 41.4831 39.1787C41.238 39.0279 41.0871 38.8299 41.0306 38.5848C40.974 38.3208 40.9457 38.0285 40.9457 37.708V32.0797C40.9457 31.4009 40.8232 30.8163 40.578 30.3261C40.3518 29.8359 40.0124 29.4588 39.5598 29.1948C39.1262 28.9308 38.5699 28.7988 37.8911 28.7988C37.2312 28.7988 36.6561 28.9402 36.1659 29.2231C35.6756 29.487 35.2985 29.8642 35.0345 30.3544C34.7706 30.8446 34.6386 31.4197 34.6386 32.0797V37.7363C34.6386 38.0568 34.6103 38.3491 34.5537 38.613C34.4972 38.8582 34.3463 39.0562 34.1012 39.207C33.8749 39.3578 33.4884 39.4333 32.9416 39.4333ZM53.0953 39.4333C52.2279 39.4333 51.4077 39.2541 50.6347 38.8959C49.8616 38.5376 49.1828 38.0474 48.5983 37.4252C48.0138 36.7841 47.5518 36.0393 47.2124 35.1908C46.873 34.3235 46.7033 33.3995 46.7033 32.4191C46.7033 31.4763 46.873 30.5901 47.2124 29.7604C47.5518 28.912 48.0138 28.1766 48.5983 27.5544C49.2016 26.9133 49.8899 26.4136 50.6629 26.0554C51.436 25.6971 52.2468 25.518 53.0953 25.518C54.0003 25.518 54.8111 25.6971 55.5276 26.0554C56.2441 26.4136 56.8475 26.9133 57.3377 27.5544C57.8468 28.1766 58.2334 28.912 58.4973 29.7604C58.7613 30.5901 58.9027 31.4857 58.9216 32.4473C58.9216 33.409 58.7896 34.314 58.5256 35.1625C58.2805 35.9922 57.9034 36.7275 57.3943 37.3686C56.9041 38.0097 56.2913 38.5188 55.5559 38.8959C54.8394 39.2541 54.0192 39.4333 53.0953 39.4333ZM53.5478 36.1241C54.2077 36.1241 54.7923 35.9733 55.3014 35.6716C55.8293 35.3511 56.2441 34.9174 56.5458 34.3706C56.8664 33.8238 57.0266 33.2016 57.0266 32.5039C57.0266 31.7874 56.8664 31.1557 56.5458 30.6089C56.2441 30.0621 55.8293 29.6285 55.3014 29.3079C54.7923 28.9874 54.2077 28.8271 53.5478 28.8271C52.8879 28.8271 52.2939 28.9874 51.766 29.3079C51.238 29.6096 50.8138 30.0433 50.4932 30.6089C50.1915 31.1557 50.0407 31.7874 50.0407 32.5039C50.0407 33.2016 50.1915 33.8238 50.4932 34.3706C50.8138 34.9174 51.238 35.3511 51.766 35.6716C52.3128 35.9733 52.9067 36.1241 53.5478 36.1241ZM58.7802 39.4333C58.2522 39.4333 57.8657 39.3484 57.6206 39.1787C57.3754 38.9902 57.2152 38.6979 57.1398 38.3019V20.8796C57.1398 20.559 57.1586 20.2762 57.1963 20.0311C57.2529 19.7671 57.3943 19.5597 57.6206 19.4088C57.8657 19.2391 58.2428 19.1543 58.7519 19.1543C59.2987 19.1543 59.6852 19.2297 59.9115 19.3806C60.1378 19.5314 60.2792 19.7388 60.3357 20.0028C60.4112 20.2479 60.4489 20.5307 60.4489 20.8513V37.708C60.4489 38.0285 60.4206 38.3208 60.364 38.5848C60.3075 38.8487 60.1566 39.0562 59.9115 39.207C59.6852 39.3578 59.3081 39.4333 58.7802 39.4333Z" fill="url(#paint1_linear_63_535)"/>
</g>
<defs>
<filter id="filter0_i_63_535" x="1.58398" y="19.1543" width="58.8652" height="21.1672" filterUnits="userSpaceOnUse" color-interpolation-filters="sRGB">
<feFlood flood-opacity="0" result="BackgroundImageFix"/>
<feBlend mode="normal" in="SourceGraphic" in2="BackgroundImageFix" result="shape"/>
<feColorMatrix in="SourceAlpha" type="matrix" values="0 0 0 0 0 0 0 0 0 0 0 0 0 0 0 0 0 0 127 0" result="hardAlpha"/>
<feOffset dy="1.29009"/>
<feGaussianBlur stdDeviation="0.430029"/>
<feComposite in2="hardAlpha" operator="arithmetic" k2="-1" k3="1"/>
<feColorMatrix type="matrix" values="0 0 0 0 1 0 0 0 0 1 0 0 0 0 1 0 0 0 0.25 0"/>
<feBlend mode="normal" in2="shape" result="effect1_innerShadow_63_535"/>
</filter>
<linearGradient id="paint0_linear_63_535" x1="25.5464" y1="2.54717" x2="30.1657" y2="19.6954" gradientUnits="userSpaceOnUse">
<stop stop-color="white"/>
<stop offset="1" stop-color="#4DACE9"/>
</linearGradient>
<linearGradient id="paint1_linear_63_535" x1="-15.4317" y1="56.7787" x2="49.9835" y2="8.33507" gradientUnits="userSpaceOnUse">
<stop stop-color="#2BD5E8"/>
<stop offset="1" stop-color="#8864E8"/>
</linearGradient>
</defs>
</svg>
