<svg width="160" height="40" viewBox="0 0 160 40" fill="none" xmlns="http://www.w3.org/2000/svg">
<g filter="url(#filter0_i_7_24)">
<rect width="160" height="40" rx="20" fill="#6EBCF7"/>
<rect x="1" y="1" width="158" height="38" rx="19" stroke="url(#paint0_linear_7_24)" stroke-width="2"/>
<path d="M52 25.68C53.072 25.68 53.88 25.44 54.424 24.96C54.984 24.464 55.264 23.832 55.264 23.064C55.264 22.408 55.048 21.864 54.616 21.432C54.2 21 53.536 20.656 52.624 20.4L50.536 19.776C49.864 19.568 49.28 19.304 48.784 18.984C48.288 18.648 47.904 18.24 47.632 17.76C47.376 17.264 47.248 16.688 47.248 16.032C47.248 14.8 47.696 13.84 48.592 13.152C49.488 12.448 50.68 12.096 52.168 12.096C53.032 12.096 53.8 12.192 54.472 12.384C55.16 12.56 55.696 12.792 56.08 13.08C56.48 13.368 56.68 13.672 56.68 13.992C56.68 14.2 56.624 14.392 56.512 14.568C56.4 14.728 56.256 14.856 56.08 14.952C55.68 14.632 55.136 14.352 54.448 14.112C53.776 13.872 53.04 13.752 52.24 13.752C51.312 13.752 50.576 13.96 50.032 14.376C49.488 14.776 49.216 15.328 49.216 16.032C49.216 16.592 49.408 17.048 49.792 17.4C50.192 17.752 50.832 18.056 51.712 18.312L53.176 18.744C54.44 19.096 55.432 19.608 56.152 20.28C56.888 20.952 57.256 21.88 57.256 23.064C57.256 24.328 56.792 25.352 55.864 26.136C54.952 26.92 53.664 27.312 52 27.312C51.024 27.312 50.168 27.208 49.432 27C48.712 26.776 48.144 26.504 47.728 26.184C47.328 25.848 47.128 25.52 47.128 25.2C47.128 24.928 47.208 24.704 47.368 24.528C47.544 24.336 47.744 24.2 47.968 24.12C48.336 24.472 48.856 24.824 49.528 25.176C50.2 25.512 51.024 25.68 52 25.68ZM65.2835 14.064L65.1635 12.408H70.7555C70.8035 12.472 70.8515 12.576 70.8995 12.72C70.9475 12.864 70.9715 13.016 70.9715 13.176C70.9715 13.432 70.9075 13.648 70.7795 13.824C70.6515 13.984 70.4675 14.064 70.2275 14.064H65.2835ZM65.3315 12.408L65.4515 14.064H59.8355C59.7875 13.984 59.7395 13.872 59.6915 13.728C59.6435 13.584 59.6195 13.432 59.6195 13.272C59.6195 13 59.6835 12.792 59.8115 12.648C59.9395 12.488 60.1235 12.408 60.3635 12.408H65.3315ZM64.3235 13.416H66.2675V26.952C66.1875 26.984 66.0595 27.016 65.8835 27.048C65.7235 27.096 65.5555 27.12 65.3795 27.12C65.0275 27.12 64.7635 27.048 64.5875 26.904C64.4115 26.76 64.3235 26.536 64.3235 26.232V13.416ZM78.7731 13.92H78.6771C78.4371 14.592 78.1491 15.392 77.8131 16.32C77.4931 17.248 77.1571 18.208 76.8051 19.2C76.4691 20.176 76.1491 21.088 75.8451 21.936L75.7251 22.296C75.6291 22.584 75.5091 22.944 75.3651 23.376C75.2211 23.808 75.0691 24.264 74.9091 24.744C74.7491 25.208 74.5971 25.648 74.4531 26.064C74.3091 26.464 74.1971 26.792 74.1171 27.048C74.0051 27.096 73.8851 27.128 73.7571 27.144C73.6451 27.176 73.5011 27.192 73.3251 27.192C73.0691 27.192 72.8371 27.128 72.6291 27C72.4371 26.856 72.3411 26.632 72.3411 26.328C72.3411 26.184 72.3651 26.04 72.4131 25.896C72.4611 25.736 72.5171 25.568 72.5811 25.392C72.7731 24.848 73.0051 24.184 73.2771 23.4C73.5651 22.616 73.8771 21.76 74.2131 20.832C74.5491 19.904 74.9011 18.952 75.2691 17.976C75.6371 17 75.9971 16.048 76.3491 15.12C76.7011 14.192 77.0291 13.344 77.3331 12.576C77.4611 12.512 77.6531 12.448 77.9091 12.384C78.1651 12.32 78.4291 12.288 78.7011 12.288C79.0211 12.288 79.3251 12.336 79.6131 12.432C79.9171 12.528 80.1091 12.688 80.1891 12.912C80.5731 13.84 80.9811 14.896 81.4131 16.08C81.8611 17.248 82.3091 18.472 82.7571 19.752C83.2051 21.016 83.6291 22.248 84.0291 23.448C84.4451 24.648 84.8131 25.736 85.1331 26.712C85.0211 26.856 84.8691 26.968 84.6771 27.048C84.5011 27.144 84.3011 27.192 84.0771 27.192C83.7731 27.192 83.5411 27.128 83.3811 27C83.2211 26.856 83.0851 26.624 82.9731 26.304L81.6531 22.392L81.4611 21.72C81.1411 20.744 80.8051 19.76 80.4531 18.768C80.1171 17.776 79.7971 16.856 79.4931 16.008C79.2051 15.16 78.9651 14.464 78.7731 13.92ZM74.7891 23.112L75.4131 21.504H82.1091L82.4931 23.112H74.7891ZM90.9042 19.848H93.6642C94.8482 19.848 95.7762 19.592 96.4482 19.08C97.1202 18.568 97.4562 17.808 97.4562 16.8C97.4562 15.808 97.1042 15.056 96.4002 14.544C95.6962 14.032 94.6882 13.776 93.3762 13.776C92.9442 13.776 92.5042 13.8 92.0562 13.848C91.6242 13.88 91.2402 13.928 90.9042 13.992V19.848ZM93.6642 21.48H88.9602V13.464C88.9602 13.208 89.0242 13.016 89.1522 12.888C89.2962 12.744 89.4962 12.632 89.7522 12.552C90.2162 12.408 90.7842 12.304 91.4562 12.24C92.1442 12.176 92.8082 12.144 93.4482 12.144C95.4482 12.144 96.9442 12.552 97.9362 13.368C98.9282 14.184 99.4242 15.328 99.4242 16.8C99.4242 17.744 99.2082 18.568 98.7762 19.272C98.3442 19.976 97.7042 20.52 96.8562 20.904C96.0082 21.288 94.9442 21.48 93.6642 21.48ZM93.7122 20.856L95.1522 20.136C95.6002 20.696 96.0642 21.28 96.5442 21.888C97.0242 22.496 97.4882 23.088 97.9362 23.664C98.3842 24.24 98.7842 24.76 99.1362 25.224C99.4882 25.672 99.7602 26.024 99.9522 26.28C99.8882 26.552 99.7442 26.768 99.5202 26.928C99.3122 27.088 99.0962 27.168 98.8722 27.168C98.6002 27.168 98.3762 27.104 98.2002 26.976C98.0242 26.832 97.8402 26.632 97.6482 26.376L93.7122 20.856ZM88.9602 20.952H90.9282V26.952C90.8322 26.984 90.7042 27.016 90.5442 27.048C90.3842 27.096 90.2082 27.12 90.0162 27.12C89.6642 27.12 89.4002 27.048 89.2242 26.904C89.0482 26.76 88.9602 26.536 88.9602 26.232V20.952ZM107.869 14.064L107.749 12.408H113.341C113.389 12.472 113.437 12.576 113.485 12.72C113.533 12.864 113.557 13.016 113.557 13.176C113.557 13.432 113.493 13.648 113.365 13.824C113.237 13.984 113.053 14.064 112.813 14.064H107.869ZM107.917 12.408L108.037 14.064H102.421C102.373 13.984 102.325 13.872 102.277 13.728C102.229 13.584 102.205 13.432 102.205 13.272C102.205 13 102.269 12.792 102.397 12.648C102.525 12.488 102.709 12.408 102.949 12.408H107.917ZM106.909 13.416H108.853V26.952C108.773 26.984 108.645 27.016 108.469 27.048C108.309 27.096 108.141 27.12 107.965 27.12C107.613 27.12 107.349 27.048 107.173 26.904C106.997 26.76 106.909 26.536 106.909 26.232V13.416Z" fill="white"/>
</g>
<defs>
<filter id="filter0_i_7_24" x="0" y="0" width="160" height="45" filterUnits="userSpaceOnUse" color-interpolation-filters="sRGB">
<feFlood flood-opacity="0" result="BackgroundImageFix"/>
<feBlend mode="normal" in="SourceGraphic" in2="BackgroundImageFix" result="shape"/>
<feColorMatrix in="SourceAlpha" type="matrix" values="0 0 0 0 0 0 0 0 0 0 0 0 0 0 0 0 0 0 127 0" result="hardAlpha"/>
<feOffset dy="5"/>
<feGaussianBlur stdDeviation="2.5"/>
<feComposite in2="hardAlpha" operator="arithmetic" k2="-1" k3="1"/>
<feColorMatrix type="matrix" values="0 0 0 0 1 0 0 0 0 1 0 0 0 0 1 0 0 0 0.25 0"/>
<feBlend mode="normal" in2="shape" result="effect1_innerShadow_7_24"/>
</filter>
<linearGradient id="paint0_linear_7_24" x1="166.881" y1="-15.051" x2="163.269" y2="56.1734" gradientUnits="userSpaceOnUse">
<stop stop-color="#43BCF0"/>
<stop offset="0.592352" stop-color="#541896"/>
<stop offset="1" stop-color="#711280"/>
</linearGradient>
</defs>
</svg>
