<svg width="163" height="73" viewBox="0 0 163 73" fill="none" xmlns="http://www.w3.org/2000/svg">
<rect width="162.134" height="72.1787" rx="14.0447" fill="url(#paint0_linear_34_2637)"/>
<path d="M29.7047 38.2721H27.8101C27.3119 37.5249 26.7871 36.7421 26.2357 35.9238C25.702 35.0877 25.1683 34.2426 24.6346 33.3887C24.1187 32.5348 23.6205 31.6987 23.1402 30.8803C22.6777 30.0442 22.2596 29.2704 21.886 28.5588C21.9572 28.3631 22.0906 28.1763 22.2863 27.9984C22.482 27.8027 22.7399 27.7049 23.0602 27.7049C23.3982 27.7049 23.6561 27.7938 23.834 27.9717C24.0297 28.1496 24.2254 28.4164 24.4211 28.7722C24.7057 29.2704 25.0348 29.8574 25.4084 30.5334C25.7998 31.1917 26.2001 31.8766 26.6092 32.5882C27.0184 33.2998 27.4009 33.9758 27.7567 34.6162C28.1303 35.2567 28.4505 35.7904 28.7173 36.2173H28.8241C29.4467 35.1855 30.016 34.2071 30.5319 33.282C31.0478 32.3569 31.5459 31.4496 32.0263 30.5601C32.5066 29.6706 32.978 28.7811 33.4406 27.8916C33.5473 27.8205 33.6807 27.776 33.8408 27.7582C34.001 27.7226 34.1433 27.7049 34.2678 27.7049C34.6058 27.7049 34.8549 27.7849 35.015 27.945C35.1929 28.1051 35.2818 28.3275 35.2818 28.6121C35.2818 28.79 35.1395 29.1725 34.8549 29.7596C34.588 30.3289 34.2055 31.0494 33.7074 31.9211C33.2093 32.775 32.6222 33.7445 31.9462 34.8297C31.2702 35.9149 30.523 37.0623 29.7047 38.2721ZM27.6766 37.2313H29.8381V44.036C29.7492 44.0716 29.6068 44.1071 29.4112 44.1427C29.2333 44.1961 29.0465 44.2228 28.8508 44.2228C28.4594 44.2228 28.1659 44.1427 27.9702 43.9826C27.7745 43.8225 27.6766 43.5734 27.6766 43.2354V37.2313ZM52.5505 35.9772C52.5505 37.8273 52.2125 39.3839 51.5364 40.647C50.8604 41.8923 49.9354 42.8352 48.7612 43.4756C47.6049 44.116 46.2884 44.4363 44.8119 44.4363C43.3531 44.4363 42.0366 44.116 40.8625 43.4756C39.6884 42.8352 38.7633 41.8923 38.0873 40.647C37.4113 39.3839 37.0733 37.8273 37.0733 35.9772C37.0733 34.127 37.4202 32.5793 38.114 31.334C38.8078 30.0709 39.7328 29.1191 40.8892 28.4787C42.0633 27.8383 43.3709 27.5181 44.8119 27.5181C46.2706 27.5181 47.5782 27.8383 48.7345 28.4787C49.9087 29.1191 50.8337 30.0709 51.5098 31.334C52.2036 32.5793 52.5505 34.127 52.5505 35.9772ZM50.3356 35.9772C50.3356 33.8602 49.8286 32.2324 48.8146 31.0938C47.8184 29.9375 46.4841 29.3593 44.8119 29.3593C43.1574 29.3593 41.8232 29.9375 40.8091 31.0938C39.8129 32.2324 39.3148 33.8602 39.3148 35.9772C39.3148 38.0942 39.8129 39.7308 40.8091 40.8872C41.8054 42.0257 43.1396 42.595 44.8119 42.595C46.5019 42.595 47.845 42.0257 48.8413 40.8872C49.8375 39.7308 50.3356 38.0942 50.3356 35.9772ZM62.6761 44.4363C61.3419 44.4363 60.2033 44.1961 59.2605 43.7158C58.3176 43.2176 57.5971 42.5238 57.099 41.6343C56.6187 40.7271 56.3785 39.6775 56.3785 38.4855V36.2974H58.54V38.2987C58.54 39.7219 58.9314 40.7982 59.7141 41.5276C60.5147 42.2392 61.502 42.595 62.6761 42.595C63.8503 42.595 64.8287 42.2392 65.6115 41.5276C66.412 40.7982 66.8123 39.7219 66.8123 38.2987V36.2974H69.0004V38.4855C69.0004 39.6775 68.7514 40.7271 68.2533 41.6343C67.7729 42.5238 67.0613 43.2176 66.1185 43.7158C65.1756 44.1961 64.0282 44.4363 62.6761 44.4363ZM58.54 37.3915H56.3785V27.9183C56.4674 27.8827 56.6009 27.8472 56.7788 27.8116C56.9745 27.7582 57.179 27.7315 57.3925 27.7315C57.7839 27.7315 58.0685 27.8116 58.2464 27.9717C58.4421 28.114 58.54 28.3631 58.54 28.7189V37.3915ZM69.0004 37.3915H66.8123V27.9183C66.9012 27.8827 67.0347 27.8472 67.2126 27.8116C67.4082 27.7582 67.6128 27.7315 67.8263 27.7315C68.2177 27.7315 68.5112 27.8116 68.7069 27.9717C68.9026 28.114 69.0004 28.3631 69.0004 28.7189V37.3915ZM86.2818 31.8944C86.4241 31.8232 86.602 31.7609 86.8155 31.7076C87.029 31.6542 87.2514 31.6275 87.4826 31.6275C87.8384 31.6275 88.132 31.6898 88.3632 31.8143C88.6123 31.9211 88.7724 32.0901 88.8436 32.3213C89.2883 33.6022 89.6886 34.7941 90.0444 35.8971C90.418 36.9823 90.7649 38.0408 91.0851 39.0726C91.4231 40.0866 91.7611 41.1362 92.0991 42.2214H92.2058C92.5439 40.6203 92.873 39.0637 93.1932 37.5516C93.5134 36.0216 93.8247 34.4739 94.1272 32.9084C94.4296 31.3429 94.7053 29.6706 94.9544 27.8916C95.2034 27.7671 95.5059 27.7049 95.8617 27.7049C96.1997 27.7049 96.4665 27.7849 96.6622 27.945C96.8579 28.0873 96.9557 28.3097 96.9557 28.6121C96.9557 28.9501 96.9024 29.4661 96.7956 30.1599C96.7067 30.8359 96.5733 31.6364 96.3954 32.5615C96.2353 33.4688 96.0396 34.4383 95.8083 35.4701C95.5948 36.4842 95.3636 37.5071 95.1145 38.5389C94.8654 39.5529 94.6164 40.5136 94.3673 41.4209C94.1183 42.3282 93.8781 43.1198 93.6468 43.7958C93.4867 43.8848 93.2821 43.9737 93.0331 44.0627C92.784 44.1338 92.4994 44.1694 92.1792 44.1694C91.7878 44.1694 91.4587 44.1071 91.1918 43.9826C90.925 43.8581 90.7471 43.6891 90.6581 43.4756C90.4091 42.853 90.1066 42.0346 89.7508 41.0206C89.395 39.9888 89.0214 38.868 88.6301 37.6583C88.2565 36.4308 87.8918 35.2211 87.536 34.0292C87.198 35.2033 86.8333 36.4219 86.4419 37.685C86.0505 38.9481 85.6681 40.1222 85.2945 41.2074C84.9387 42.2926 84.6184 43.1643 84.3338 43.8225C84.2093 43.8937 84.0136 43.9737 83.7467 44.0627C83.4977 44.1338 83.213 44.1694 82.8928 44.1694C82.5014 44.1694 82.1723 44.1071 81.9055 43.9826C81.6564 43.8403 81.4874 43.6713 81.3985 43.4756C81.2206 43.0309 80.9982 42.3637 80.7314 41.4742C80.4823 40.5847 80.2154 39.5707 79.9308 38.4322C79.6462 37.2758 79.3615 36.0839 79.0769 34.8564C78.81 33.6111 78.5521 32.4192 78.303 31.2806C78.0718 30.1243 77.885 29.1014 77.7426 28.2119C77.8672 28.0873 78.0362 27.9717 78.2497 27.865C78.4631 27.7582 78.6944 27.7049 78.9435 27.7049C79.2637 27.7049 79.5127 27.7849 79.6906 27.945C79.8685 28.0873 79.9931 28.3364 80.0642 28.6922C80.2955 29.813 80.5179 30.8981 80.7314 31.9477C80.9448 32.9973 81.1583 34.0558 81.3718 35.1232C81.6031 36.1906 81.8432 37.3114 82.0923 38.4855C82.3413 39.6419 82.6171 40.8872 82.9195 42.2214H83.0263C83.2753 41.4209 83.5155 40.6559 83.7467 39.9265C83.978 39.1971 84.2182 38.45 84.4672 37.685C84.7163 36.9022 84.9831 36.0483 85.2678 35.1232C85.5702 34.1982 85.9082 33.1219 86.2818 31.8944ZM115.041 35.9772C115.041 37.8273 114.703 39.3839 114.027 40.647C113.351 41.8923 112.426 42.8352 111.252 43.4756C110.095 44.116 108.779 44.4363 107.302 44.4363C105.844 44.4363 104.527 44.116 103.353 43.4756C102.179 42.8352 101.254 41.8923 100.578 40.647C99.9018 39.3839 99.5638 37.8273 99.5638 35.9772C99.5638 34.127 99.9107 32.5793 100.604 31.334C101.298 30.0709 102.223 29.1191 103.38 28.4787C104.554 27.8383 105.861 27.5181 107.302 27.5181C108.761 27.5181 110.069 27.8383 111.225 28.4787C112.399 29.1191 113.324 30.0709 114 31.334C114.694 32.5793 115.041 34.127 115.041 35.9772ZM112.826 35.9772C112.826 33.8602 112.319 32.2324 111.305 31.0938C110.309 29.9375 108.975 29.3593 107.302 29.3593C105.648 29.3593 104.314 29.9375 103.3 31.0938C102.303 32.2324 101.805 33.8602 101.805 35.9772C101.805 38.0942 102.303 39.7308 103.3 40.8872C104.296 42.0257 105.63 42.595 107.302 42.595C108.992 42.595 110.336 42.0257 111.332 40.8872C112.328 39.7308 112.826 38.0942 112.826 35.9772ZM118.896 29.7062L120.71 29.5461C120.781 30.0976 120.844 30.7469 120.897 31.4941C120.95 32.2413 120.986 33.0151 121.004 33.8157C121.039 34.5984 121.057 35.3456 121.057 36.0572V44.036C120.968 44.0716 120.826 44.1071 120.63 44.1427C120.452 44.1961 120.266 44.2228 120.07 44.2228C119.678 44.2228 119.385 44.1516 119.189 44.0093C118.994 43.8492 118.896 43.6001 118.896 43.2621V29.7062ZM131.758 42.2481L129.917 42.4082C129.739 40.9139 129.632 39.3928 129.596 37.8451C129.579 36.2796 129.57 34.7674 129.57 33.3087V27.9183C129.676 27.8827 129.819 27.8472 129.997 27.8116C130.175 27.7582 130.37 27.7315 130.584 27.7315C130.975 27.7315 131.269 27.8116 131.464 27.9717C131.66 28.114 131.758 28.3542 131.758 28.6922V42.2481ZM131.758 41.4476V43.7958C131.598 43.9204 131.393 44.0271 131.144 44.116C130.895 44.205 130.619 44.2495 130.317 44.2495C129.89 44.2495 129.525 44.1694 129.223 44.0093C128.92 43.8314 128.645 43.5201 128.396 43.0753L123.325 34.5362C123.059 34.0558 122.765 33.531 122.445 32.9618C122.125 32.3747 121.822 31.8232 121.538 31.3073C121.253 30.7736 121.03 30.3378 120.87 29.9997L118.896 30.5068V28.1852C119.038 28.0429 119.234 27.9272 119.483 27.8383C119.75 27.7493 120.034 27.7049 120.337 27.7049C120.764 27.7049 121.128 27.7938 121.431 27.9717C121.733 28.1318 122.009 28.4342 122.258 28.879L127.355 37.4181C127.639 37.8985 127.933 38.4322 128.235 39.0192C128.556 39.5885 128.849 40.14 129.116 40.6737C129.383 41.1896 129.596 41.6166 129.756 41.9546L131.758 41.4476ZM138.513 28.5588C138.513 29.0925 138.504 29.7952 138.487 30.6669C138.487 31.5208 138.469 32.4548 138.433 33.4688C138.415 34.465 138.389 35.4613 138.353 36.4575C138.318 37.4359 138.282 38.3165 138.246 39.0993C138.14 39.1704 138.006 39.2327 137.846 39.2861C137.704 39.3395 137.544 39.3661 137.366 39.3661C137.117 39.3661 136.912 39.3128 136.752 39.206C136.592 39.0993 136.503 38.9303 136.485 38.699C136.45 38.1831 136.414 37.4715 136.378 36.5642C136.343 35.6569 136.316 34.6696 136.298 33.6022C136.281 32.517 136.263 31.4585 136.245 30.4267C136.245 29.3949 136.245 28.5054 136.245 27.7582C136.619 27.527 137.019 27.4113 137.446 27.4113C137.784 27.4113 138.042 27.5092 138.22 27.7049C138.415 27.8827 138.513 28.1674 138.513 28.5588ZM135.898 42.8885C135.898 42.4616 136.032 42.1058 136.298 41.8211C136.565 41.5365 136.93 41.3942 137.392 41.3942C137.855 41.3942 138.22 41.5365 138.487 41.8211C138.753 42.1058 138.887 42.4616 138.887 42.8885C138.887 43.3155 138.753 43.6713 138.487 43.9559C138.22 44.2406 137.855 44.3829 137.392 44.3829C136.93 44.3829 136.565 44.2406 136.298 43.9559C136.032 43.6713 135.898 43.3155 135.898 42.8885Z" fill="white"/>
<defs>
<linearGradient id="paint0_linear_34_2637" x1="169.106" y1="-27.159" x2="157.567" y2="100.651" gradientUnits="userSpaceOnUse">
<stop stop-color="#43BCF0"/>
<stop offset="0.592352" stop-color="#541896"/>
<stop offset="1" stop-color="#711280"/>
</linearGradient>
</defs>
</svg>
